<?xml version="1.0" encoding="UTF-8" standalone="no"?>
<!-- Created with Inkscape (http://www.inkscape.org/) -->

<svg
   xmlns:dc="http://purl.org/dc/elements/1.1/"
   xmlns:cc="http://creativecommons.org/ns#"
   xmlns:rdf="http://www.w3.org/1999/02/22-rdf-syntax-ns#"
   xmlns:svg="http://www.w3.org/2000/svg"
   xmlns="http://www.w3.org/2000/svg"
   xmlns:sodipodi="http://sodipodi.sourceforge.net/DTD/sodipodi-0.dtd"
   xmlns:inkscape="http://www.inkscape.org/namespaces/inkscape"
   width="325"
   height="95"
   viewBox="0 0 325 95.000002"
   id="svg8374"
   version="1.1"
   inkscape:version="0.91 r13725"
   sodipodi:docname="logo.svg">
  <defs
     id="defs8376" />
  <sodipodi:namedview
     id="base"
     pagecolor="#ffffff"
     bordercolor="#666666"
     borderopacity="1.0"
     inkscape:pageopacity="0.0"
     inkscape:pageshadow="2"
     inkscape:zoom="0.98994949"
     inkscape:cx="92.336723"
     inkscape:cy="127.02788"
     inkscape:document-units="px"
     inkscape:current-layer="layer1"
     showgrid="false"
     units="px"
     inkscape:window-width="1920"
     inkscape:window-height="1018"
     inkscape:window-x="-8"
     inkscape:window-y="-8"
     inkscape:window-maximized="1" />
  <metadata
     id="metadata8379">
    <rdf:RDF>
      <cc:Work
         rdf:about="">
        <dc:format>image/svg+xml</dc:format>
        <dc:type
           rdf:resource="http://purl.org/dc/dcmitype/StillImage" />
        <dc:title></dc:title>
      </cc:Work>
    </rdf:RDF>
  </metadata>
  <g
     inkscape:label="Layer 1"
     inkscape:groupmode="layer"
     id="layer1"
     transform="translate(0,-957.36216)">
    <g
       style="font-style:normal;font-variant:normal;font-weight:bold;font-stretch:normal;font-size:89.19274902px;line-height:125%;font-family:Aharoni;-inkscape-font-specification:'Aharoni, Bold';text-align:start;letter-spacing:0px;word-spacing:0px;writing-mode:lr-tb;text-anchor:start;fill:#abb2bf;fill-opacity:1;stroke:none;stroke-width:1px;stroke-linecap:butt;stroke-linejoin:miter;stroke-opacity:1"
       id="text4184-7-4-2-3">
      <path
         d="m 49.309787,1008.7713 q 0,15.0687 -13.239549,19.6416 -4.616421,1.6114 -9.929661,1.6114 -11.149094,0 -20.6867949,-6.7505 l 6.6197739,-12.4556 q 6.968184,6.2714 13.631509,6.2714 3.00503,0 5.095485,-1.3937 2.438864,-1.5678 2.438864,-4.4422 0,-2.6131 -2.700171,-4.3551 -2.003353,-1.3065 -6.750428,-2.6566 -5.748751,-1.6985 -7.22949,-2.3518 -2.351762,-1.0017 -4.006706,-2.35174 -4.747075,-3.9196 -4.747075,-11.84591 0,-8.27472 4.92128,-13.71861 5.748751,-6.40202 15.330003,-6.40202 9.624804,0 18.857647,4.83417 l -6.184263,12.02012 q -5.051933,-3.9196 -10.190968,-3.9196 -2.482416,0 -4.442217,1.26298 -2.221109,1.43719 -2.221109,3.8325 0,2.35176 2.917927,4.05026 1.306535,0.78392 7.839207,2.70017 8.187615,2.39531 11.671707,6.79398 3.005029,3.7454 3.005029,9.6248 z"
         style="font-style:normal;font-variant:normal;font-weight:bold;font-stretch:normal;font-size:89.19274902px;line-height:125%;font-family:Aharoni;-inkscape-font-specification:'Aharoni, Bold';text-align:start;writing-mode:lr-tb;text-anchor:start;fill:#abb2bf;fill-opacity:1"
         id="path12876" />
      <path
         d="m 93.16579,1028.4564 -34.013445,0 0,-59.44729 15.460657,0 0,46.51259 18.552788,0 0,12.9347 z"
         style="font-style:normal;font-variant:normal;font-weight:bold;font-stretch:normal;font-size:89.19274902px;line-height:125%;font-family:Aharoni;-inkscape-font-specification:'Aharoni, Bold';text-align:start;writing-mode:lr-tb;text-anchor:start;fill:#abb2bf;fill-opacity:1"
         id="path12878" />
      <path
         d="m 134.9749,1028.4564 -33.83924,0 0,-59.44729 33.83924,0 0,12.93469 -18.37859,0 0,10.06031 17.37691,0 0,12.93469 -17.37691,0 0,10.5829 18.37859,0 0,12.9347 z"
         style="font-style:normal;font-variant:normal;font-weight:bold;font-stretch:normal;font-size:89.19274902px;line-height:125%;font-family:Aharoni;-inkscape-font-specification:'Aharoni, Bold';text-align:start;writing-mode:lr-tb;text-anchor:start;fill:#abb2bf;fill-opacity:1"
         id="path12880" />
      <path
         d="m 178.70025,1028.4564 -33.83924,0 0,-59.44729 33.83924,0 0,12.93469 -18.37858,0 0,10.06031 17.37691,0 0,12.93469 -17.37691,0 0,10.5829 18.37858,0 0,12.9347 z"
         style="font-style:normal;font-variant:normal;font-weight:bold;font-stretch:normal;font-size:89.19274902px;line-height:125%;font-family:Aharoni;-inkscape-font-specification:'Aharoni, Bold';text-align:start;writing-mode:lr-tb;text-anchor:start;fill:#abb2bf;fill-opacity:1"
         id="path12882" />
      <path
         d="m 233.836,988.60712 q 0,8.05696 -3.78895,13.32668 -4.92128,6.8375 -16.33168,6.8375 l -9.66836,0 0,19.6851 -15.46066,0 0,-59.44729 24.6064,0 q 10.49583,0 15.93972,6.14071 4.70353,5.26969 4.70353,13.4573 z m -16.07038,0.17421 q 0,-3.30989 -1.9598,-5.26969 -1.91625,-2.00336 -6.57622,-2.00336 l -5.18259,0 0,14.76384 5.13904,0 q 5.00838,0 6.88108,-2.17755 1.69849,-1.95981 1.69849,-5.31324 z"
         style="font-style:normal;font-variant:normal;font-weight:bold;font-stretch:normal;font-size:89.19274902px;line-height:125%;font-family:Aharoni;-inkscape-font-specification:'Aharoni, Bold';text-align:start;writing-mode:lr-tb;text-anchor:start;fill:#abb2bf;fill-opacity:1"
         id="path12884" />
    </g>
    <g
       style="font-style:normal;font-variant:normal;font-weight:bold;font-stretch:normal;font-size:131.56343079px;line-height:125%;font-family:Aharoni;-inkscape-font-specification:'Aharoni, Bold';text-align:start;letter-spacing:0px;word-spacing:0px;writing-mode:lr-tb;text-anchor:start;fill:#2a7fff;fill-opacity:1;stroke:none;stroke-width:1px;stroke-linecap:butt;stroke-linejoin:miter;stroke-opacity:1"
       id="text4184-2-6-5-6-2">
      <path
         d="m 322.57107,1004.8943 q 0,17.8587 -11.88439,31.3491 -13.55464,15.3533 -36.68102,15.3533 -23.06214,0 -36.61678,-15.3533 -11.88439,-13.4904 -11.88439,-31.3491 0,-8.15849 3.212,-16.7024 3.212,-8.60816 8.60815,-14.71095 13.55464,-15.35335 36.68102,-15.35335 23.12638,0 36.68102,15.35335 11.88439,13.49039 11.88439,31.41335 z m -23.70455,0 q 0,-9.25057 -5.91007,-15.99577 -7.58032,-8.60815 -18.95079,-8.60815 -7.83727,0 -14.19703,4.43256 -6.35976,4.36831 -9.05783,11.69167 -1.54176,4.17559 -1.54176,8.47969 0,8.8651 5.91007,15.8673 7.32336,8.6723 18.88655,8.6723 11.56319,0 18.95079,-8.6081 5.91007,-6.8737 5.91007,-15.9315 z"
         style="font-style:normal;font-variant:normal;font-weight:bold;font-stretch:normal;font-size:131.56343079px;line-height:125%;font-family:Aharoni;-inkscape-font-specification:'Aharoni, Bold';text-align:start;writing-mode:lr-tb;text-anchor:start;fill:#2a7fff"
         id="path12887" />
    </g>
    <rect
       style="opacity:1;fill:#2a7fff;fill-opacity:1;stroke:#0000ff;stroke-width:0;stroke-miterlimit:4;stroke-dasharray:none;stroke-opacity:1"
       id="rect4166-7-1-2-3"
       width="271.04135"
       height="18.716578"
       x="2.4289458"
       y="1032.8545" />
  </g>
</svg>
